<svg width="147" height="50" viewBox="0 0 147 50" fill="none" xmlns="http://www.w3.org/2000/svg">
<g clip-path="url(#clip0_235_21241)">
<g clip-path="url(#clip1_235_21241)">
<path d="M3.73403 11.6043C2.92978 9.88088 1.83828 6.6064 3.79148 4.19362L1.72339 2.47021C-0.402149 5.05533 -0.57449 8.78938 1.32126 12.7532C3.79148 17.9809 9.93831 23.4958 17.6362 25.6788C17.9234 24.8171 18.2107 24.0128 18.5554 23.1511C11.5468 21.2554 5.97447 16.3149 3.73403 11.6043Z" fill="#3C3CE6"/>
<path d="M40.7296 2.75774C42.7402 2.52795 44.3487 3.04497 45.3253 4.19391L47.3934 2.4705C45.8998 0.6322 43.3147 -0.286951 40.4423 0.0577306C35.0423 0.6322 29.4125 4.94072 24.587 11.8344C25.1614 12.6386 25.6785 13.4429 26.1955 14.3046C30.0444 8.50243 35.2147 3.33221 40.7296 2.75774Z" fill="#3C3CE6"/>
<path d="M20.3361 43.5452C19.3595 41.9367 16.8318 36.4218 20.2786 26.2537C20.5659 25.4494 20.8531 24.5877 21.2552 23.6685C21.7723 22.4047 22.3467 21.0834 23.0361 19.7047C23.4957 18.7855 24.0127 17.809 24.5872 16.8898C24.0701 16.0281 23.5531 15.1664 22.9787 14.3047C22.1744 15.626 21.3701 17.0047 20.6233 18.4983C19.8191 20.0494 19.1872 21.6005 18.5552 23.0941C18.2106 23.9558 17.9233 24.8175 17.6361 25.6217C15.1084 33.3771 15.1659 40.2707 18.0382 44.9239C19.6467 47.5665 22.0595 49.0601 24.5872 49.0601V46.3601C22.9787 46.4175 21.4276 45.3835 20.3361 43.5452Z" fill="#3C3CE6"/>
<path d="M28.781 43.5452C27.6321 45.3835 26.1385 46.4176 24.53 46.4176V49.1176C27.0576 49.1176 29.413 47.6239 31.0789 44.9814C33.9513 40.3856 34.0087 33.4345 31.481 25.6792C30.6193 25.909 29.7576 26.1388 28.8385 26.2537C32.2853 36.4218 29.7576 41.9367 28.781 43.5452Z" fill="#3C3CE6"/>
<path d="M47.3937 2.47021L45.3256 4.19362C47.2788 6.6064 46.1873 9.88088 45.383 11.6043C43.1426 16.3149 37.5702 21.2554 30.5617 23.1511C29.7 23.3809 28.7808 23.5533 27.9191 23.7256C26.8276 23.8979 25.7361 23.9554 24.5872 23.9554C23.4383 23.9554 22.3468 23.8405 21.2553 23.7256C20.9106 24.5873 20.5659 25.449 20.2787 26.3107C21.6574 26.5405 23.0936 26.7128 24.5872 26.7128C26.0808 26.7128 27.4596 26.5979 28.8957 26.3107C29.7574 26.1384 30.6766 25.966 31.5383 25.7362C39.2362 23.5533 45.383 18.0383 47.8532 12.8107C49.6341 8.84683 49.5192 5.11278 47.3937 2.47021Z" fill="#3C3CE6"/>
<path d="M28.4937 18.5555C27.7469 17.0619 26.9426 15.6832 26.1384 14.3619C25.6213 13.5002 25.1043 12.696 24.5298 11.8917C19.7617 4.94061 14.0745 0.632086 8.67447 0.0576159C5.74468 -0.229619 3.21701 0.632086 1.72339 2.47039L3.79148 4.1938C4.71063 3.04486 6.37659 2.52784 8.38724 2.75762C13.8447 3.33209 19.0724 8.50232 22.9213 14.3619C23.4958 15.2236 24.0128 16.0853 24.5298 16.947C25.1043 17.8662 25.6213 18.8428 26.0809 19.7619C26.7703 21.1407 27.3447 22.4619 27.8618 23.7258C28.7809 23.6109 29.6426 23.3811 30.5043 23.1513C29.9299 21.6002 29.2979 20.1066 28.4937 18.5555Z" fill="#3C3CE6"/>
<path fill-rule="evenodd" clip-rule="evenodd" d="M21.5427 16.7175L23.7256 18.326C24.0129 17.8664 24.2427 17.3494 24.5299 16.8898C24.0129 16.0281 23.4959 15.1664 22.9214 14.3047C22.4618 15.1089 22.0022 15.9132 21.5427 16.7175Z" fill="#3C3CE6"/>
<path fill-rule="evenodd" clip-rule="evenodd" d="M27.345 22.4048C27.5173 22.8644 27.7471 23.2665 27.9195 23.7261C28.8386 23.6112 29.7003 23.3814 30.562 23.1516C30.2748 22.4622 29.9876 21.7729 29.7003 21.0835L27.345 22.4048Z" fill="#3C3CE6"/>
<path fill-rule="evenodd" clip-rule="evenodd" d="M30.5618 31.9409L32.6873 30.275C32.4001 28.7813 31.998 27.2303 31.4809 25.6792C30.6192 25.909 29.7575 26.1388 28.8384 26.2537C29.5277 28.3792 29.9873 30.275 30.2746 31.9409H30.5618Z" fill="#3C3CE6"/>
<path fill-rule="evenodd" clip-rule="evenodd" d="M24.4148 23.9554C23.3233 23.9554 22.2318 23.8405 21.1978 23.7256C20.8531 24.5873 20.5084 25.449 20.2212 26.3107C21.4276 26.5405 22.634 26.6554 23.8978 26.6554L24.4148 23.9554Z" fill="#3C3CE6"/>
<path fill-rule="evenodd" clip-rule="evenodd" d="M15.2806 22.0024L14.3615 24.5301C15.3955 24.9897 16.487 25.3918 17.6359 25.679C17.9232 24.8173 18.2104 24.0131 18.5551 23.1514C17.4061 22.8067 16.3146 22.462 15.2806 22.0024Z" fill="#3C3CE6"/>
</g>
</g>
<path d="M71.3722 16.606H74.3036L68.3616 26.439V32.9671H65.6167V26.439L59.701 16.606H62.7122L67.0553 23.9329L71.3722 16.606Z" fill="#1E1E32"/>
<path d="M78.3525 33.2337C75.0221 33.2337 72.7299 30.6758 72.7299 27.0517C72.7299 23.4275 75.0221 20.8696 78.3525 20.8696C81.683 20.8696 83.9752 23.4275 83.9752 27.0517C83.9752 30.6758 81.6836 33.2337 78.3525 33.2337ZM78.3525 23.1606C76.4338 23.1606 75.395 24.8131 75.395 27.0517C75.395 29.2903 76.4338 30.9421 78.3525 30.9421C80.2713 30.9421 81.3107 29.2897 81.3107 27.0517C81.3107 24.8137 80.2718 23.1606 78.3525 23.1606Z" fill="#1E1E32"/>
<path d="M98.1383 20.8701C100.563 20.8701 101.975 22.5755 101.975 25.2668V32.9673H99.3106V25.6927C99.3106 24.2273 98.6708 23.2683 97.3657 23.2683C96.8619 23.2592 96.3717 23.4319 95.9849 23.7549C95.5982 24.0779 95.3408 24.5294 95.2599 25.0268V32.9673H92.596V25.6927C92.596 24.2273 91.9562 23.2683 90.6505 23.2683C90.1467 23.2591 89.6566 23.4318 89.2699 23.7548C88.8832 24.0778 88.6259 24.5294 88.5453 25.0268V32.9673H85.8808V21.1363H88.5453V22.1222C88.9095 21.701 89.3656 21.3692 89.8784 21.1523C90.3913 20.9354 90.947 20.8392 91.5029 20.8712C92.1106 20.8642 92.711 21.0033 93.2536 21.2769C93.7963 21.5504 94.2651 21.9505 94.6208 22.4433C95.0476 21.9293 95.5867 21.5202 96.1965 21.2475C96.8063 20.9747 97.4707 20.8456 98.1383 20.8701Z" fill="#1E1E32"/>
<path d="M114.168 29.2897C113.768 31.6349 112.036 33.2337 109.185 33.2337C105.881 33.2337 103.589 30.7318 103.589 27.0779C103.589 23.5341 105.908 20.8696 109.132 20.8696C112.463 20.8696 114.275 23.2411 114.275 26.7074V27.667H106.201C106.281 29.7454 107.48 30.9975 109.185 30.9975C110.465 30.9975 111.423 30.4381 111.717 29.292L114.168 29.2897ZM106.281 25.7191H111.637C111.61 24.2799 110.785 23.1076 109.159 23.1076C107.693 23.1076 106.601 24.0137 106.281 25.7191Z" fill="#1E1E32"/>
<path d="M116.12 21.1361H118.785V22.2554C119.191 21.8132 119.686 21.4613 120.237 21.2226C120.787 20.9839 121.382 20.8637 121.982 20.8699C124.674 20.8699 126.166 22.6569 126.166 25.2666V32.9671H123.501V25.7193C123.501 24.2539 122.782 23.2943 121.263 23.2943C120.697 23.2836 120.144 23.4648 119.694 23.8083C119.244 24.1518 118.924 24.6375 118.785 25.1862V32.9671H116.12V21.1361Z" fill="#1E1E32"/>
<path d="M129.17 23.3509H127.305V21.1362H129.17V17.9653H131.835V21.1362H134.5V23.3509H131.835V29.477C131.812 29.6668 131.833 29.8594 131.896 30.0399C131.959 30.2204 132.063 30.3839 132.2 30.5178C132.336 30.6517 132.502 30.7525 132.683 30.8123C132.865 30.872 133.058 30.8892 133.247 30.8625C133.789 30.8499 134.316 30.6834 134.766 30.3824V32.8075C134.147 33.115 133.459 33.2616 132.768 33.234C130.663 33.234 129.17 32.1147 129.17 29.7695V23.3509Z" fill="#1E1E32"/>
<path d="M141.377 33.2337C138.047 33.2337 135.755 30.6758 135.755 27.0517C135.755 23.4275 138.047 20.8696 141.377 20.8696C144.708 20.8696 147 23.4275 147 27.0517C147 30.6758 144.708 33.2337 141.377 33.2337ZM141.377 23.1606C139.459 23.1606 138.42 24.8131 138.42 27.0517C138.42 29.2903 139.459 30.9421 141.377 30.9421C143.296 30.9421 144.335 29.2897 144.335 27.0517C144.335 24.8137 143.297 23.1606 141.377 23.1606Z" fill="#1E1E32"/>
<defs>
<clipPath id="clip0_235_21241">
<rect width="49.4033" height="49.4033" fill="white"/>
</clipPath>
<clipPath id="clip1_235_21241">
<rect width="49.1172" height="49.1172" fill="white"/>
</clipPath>
</defs>
</svg>
